ffmpeg started on 2016-12-07 at 20:40:22
Report written to "Output/x264/results/ffmpeg/sintelslower2000k.log"
Command line:
Tools/ffmpeg/ffmpeg -benchmark -y -i Input/y4m/sintel.y4m -c:v libx264 -preset slower -b:v 2000k -an Output/x264/encoded/sintelslower2000k.mkv
ffmpeg version N-82227-gdb23fde Copyright (c) 2000-2016 the FFmpeg developers
  built with gcc 5.4.0 (Ubuntu 5.4.0-6ubuntu1~16.04.2) 20160609
  configuration: --prefix=/home/jaroslav/ffmpeg_build --pkg-config-flags=--static --extra-cflags=-I/home/jaroslav/ffmpeg_build/include --extra-ldflags=-L/home/jaroslav/ffmpeg_build/lib --bindir=/home/jaroslav/bin --enable-gpl --enable-libass --enable-libfdk-aac --enable-libfreetype --enable-libmp3lame --enable-libopus --enable-libtheora --enable-libvorbis --enable-libvpx --enable-libx264 --enable-libx265 --enable-nvenc --enable-libmfx --enable-libxvid --enable-libgsm --enable-libopencore-amrnb --enable-version3 --enable-nonfree
  libavutil      55. 35.100 / 55. 35.100
  libavcodec     57. 66.101 / 57. 66.101
  libavformat    57. 57.100 / 57. 57.100
  libavdevice    57.  2.100 / 57.  2.100
  libavfilter     6. 66.100 /  6. 66.100
  libswscale      4.  3.100 /  4.  3.100
  libswresample   2.  4.100 /  2.  4.100
  libpostproc    54.  2.100 / 54.  2.100
Input #0, yuv4mpegpipe, from 'Input/y4m/sintel.y4m':
  Duration: 00:00:20.83, start: 0.000000, bitrate: 2057307 kb/s
    Stream #0:0: Video: rawvideo (I420 / 0x30323449), yuv420p(progressive), 4096x1744, SAR 1:1 DAR 256:109, 24 fps, 24 tbr, 24 tbn, 24 tbc
[libx264 @ 0x40a71c0] using SAR=1/1
[libx264 @ 0x40a71c0] DPB size (8 frames, 223232 mbs) > level limit (6 frames, 184320 mbs)
[libx264 @ 0x40a71c0] using cpu capabilities: MMX2 SSE2Fast SSSE3 SSE4.2 AVX FMA3 AVX2 LZCNT BMI2
[libx264 @ 0x40a71c0] profile High, level 5.2
[libx264 @ 0x40a71c0] 264 - core 148 - H.264/MPEG-4 AVC codec - Copyleft 2003-2016 - http://www.videolan.org/x264.html - options: cabac=1 ref=8 deblock=1:0:0 analyse=0x3:0x133 me=umh subme=9 psy=1 psy_rd=1.00:0.00 mixed_ref=1 me_range=16 chroma_me=1 trellis=2 8x8dct=1 cqm=0 deadzone=21,11 fast_pskip=1 chroma_qp_offset=-2 threads=6 lookahead_threads=1 sliced_threads=0 nr=0 decimate=1 interlaced=0 bluray_compat=0 constrained_intra=0 bframes=3 b_pyramid=2 b_adapt=2 b_bias=0 direct=3 weightb=1 open_gop=0 weightp=2 keyint=250 keyint_min=24 scenecut=40 intra_refresh=0 rc_lookahead=60 rc=abr mbtree=1 bitrate=2000 ratetol=1.0 qcomp=0.60 qpmin=0 qpmax=69 qpstep=4 ip_ratio=1.40 aq=1:1.00
Output #0, matroska, to 'Output/x264/encoded/sintelslower2000k.mkv':
  Metadata:
    encoder         : Lavf57.57.100
    Stream #0:0: Video: h264 (libx264) (H264 / 0x34363248), yuv420p, 4096x1744 [SAR 1:1 DAR 256:109], q=-1--1, 2000 kb/s, 24 fps, 1k tbn, 24 tbc
    Metadata:
      encoder         : Lavc57.66.101 libx264
    Side data:
      cpb: bitrate max/min/avg: 0/0/2000000 buffer size: 0 vbv_delay: -1
Stream mapping:
  Stream #0:0 -> #0:0 (rawvideo (native) -> h264 (libx264))
Press [q] to stop, [?] for help
frame=   10 fps=0.0 q=0.0 size=       0kB time=00:00:00.00 bitrate=N/A speed=   0x    frame=   19 fps= 18 q=0.0 size=       0kB time=00:00:00.00 bitrate=N/A speed=   0x    frame=   28 fps= 18 q=0.0 size=       0kB time=00:00:00.00 bitrate=N/A speed=   0x    frame=   37 fps= 18 q=0.0 size=       0kB time=00:00:00.00 bitrate=N/A speed=   0x    frame=   46 fps= 18 q=0.0 size=       0kB time=00:00:00.00 bitrate=N/A speed=   0x    frame=   55 fps= 18 q=0.0 size=       0kB time=00:00:00.00 bitrate=N/A speed=   0x    frame=   64 fps= 18 q=0.0 size=       0kB time=00:00:00.00 bitrate=N/A speed=   0x    frame=   67 fps=6.5 q=0.0 size=       0kB time=00:00:00.00 bitrate=N/A speed=   0x    frame=   68 fps=5.7 q=0.0 size=       0kB time=00:00:00.00 bitrate=N/A speed=   0x    frame=   73 fps=5.8 q=47.0 size=       1kB time=00:00:00.00 bitrate=5888.0kbits/s speed=7.97e-05x    frame=   75 fps=5.5 q=45.0 size=       1kB time=00:00:00.08 bitrate=  70.1kbits/s speed=0.00621x    frame=   77 fps=5.3 q=51.0 size=       1kB time=00:00:00.16 bitrate=  35.0kbits/s speed=0.0116x    frame=   80 fps=5.2 q=55.0 size=       1kB time=00:00:00.29 bitrate=  20.1kbits/s speed=0.0191x    frame=   81 fps=5.1 q=55.0 size=       1kB time=00:00:00.33 bitrate=  17.6kbits/s speed=0.0209x    frame=   84 fps=5.0 q=55.0 size=       1kB time=00:00:00.45 bitrate=  12.8kbits/s speed=0.0272x    frame=   86 fps=4.8 q=56.0 size=       1kB time=00:00:00.54 bitrate=  10.8kbits/s speed=0.0302x    frame=   90 fps=4.9 q=56.0 size=       1kB time=00:00:00.70 bitrate=   8.3kbits/s speed=0.0383x    frame=   92 fps=4.6 q=56.0 size=       1kB time=00:00:00.79 bitrate=   7.4kbits/s speed=0.0398x    frame=   93 fps=4.5 q=56.0 size=       1kB time=00:00:00.83 bitrate=   7.1kbits/s speed=0.0406x    frame=   95 fps=4.5 q=56.0 size=       1kB time=00:00:00.91 bitrate=   6.4kbits/s speed=0.0434x    frame=   98 fps=4.5 q=56.0 size=       1kB time=00:00:01.04 bitrate=   5.6kbits/s speed=0.0476x    frame=  100 fps=4.4 q=56.0 size=       1kB time=00:00:01.12 bitrate=   5.2kbits/s speed=0.0495x    frame=  102 fps=4.4 q=56.0 size=       1kB time=00:00:01.20 bitrate=   4.9kbits/s speed=0.052x    frame=  103 fps=4.3 q=56.0 size=       1kB time=00:00:01.25 bitrate=   4.7kbits/s speed=0.0524x    frame=  106 fps=4.3 q=56.0 size=       1kB time=00:00:01.37 bitrate=   4.3kbits/s speed=0.0558x    frame=  108 fps=4.3 q=56.0 size=       1kB time=00:00:01.45 bitrate=   4.0kbits/s speed=0.0579x    frame=  109 fps=4.2 q=56.0 size=       1kB time=00:00:01.50 bitrate=   3.9kbits/s speed=0.0581x    frame=  111 fps=4.2 q=56.0 size=       1kB time=00:00:01.58 bitrate=   3.7kbits/s speed=0.0598x    frame=  114 fps=4.2 q=56.0 size=       1kB time=00:00:01.70 bitrate=   3.4kbits/s speed=0.0631x    frame=  116 fps=4.2 q=56.0 size=       1kB time=00:00:01.79 bitrate=   3.3kbits/s speed=0.0648x    frame=  118 fps=4.2 q=56.0 size=       1kB time=00:00:01.87 bitrate=   3.1kbits/s speed=0.0664x    frame=  119 fps=4.1 q=56.0 size=       1kB time=00:00:01.91 bitrate=   3.1kbits/s speed=0.0666x    frame=  121 fps=4.1 q=56.0 size=       1kB time=00:00:02.00 bitrate=   2.9kbits/s speed=0.0683x    frame=  122 fps=4.1 q=56.0 size=       1kB time=00:00:02.04 bitrate=   2.9kbits/s speed=0.0682x    frame=  124 fps=4.1 q=56.0 size=       1kB time=00:00:02.12 bitrate=   2.8kbits/s speed=0.0695x    frame=  125 fps=4.0 q=56.0 size=       1kB time=00:00:02.16 bitrate=   2.7kbits/s speed=0.0691x    frame=  127 fps=4.0 q=56.0 size=       1kB time=00:00:02.25 bitrate=   2.6kbits/s speed=0.0705x    frame=  129 fps=4.0 q=56.0 size=       1kB time=00:00:02.33 bitrate=   2.5kbits/s speed=0.0719x    frame=  130 fps=3.9 q=56.0 size=       1kB time=00:00:02.37 bitrate=   2.5kbits/s speed=0.0719x    frame=  132 fps=3.9 q=56.0 size=       1kB time=00:00:02.45 bitrate=   2.4kbits/s speed=0.0721x    frame=  134 fps=3.9 q=56.0 size=       1kB time=00:00:02.54 bitrate=   2.3kbits/s speed=0.0731x    frame=  136 fps=3.8 q=56.0 size=       1kB time=00:00:02.62 bitrate=   2.2kbits/s speed=0.0739x    frame=  137 fps=3.8 q=56.0 size=       1kB time=00:00:02.66 bitrate=   2.2kbits/s speed=0.0731x    frame=  140 fps=3.8 q=56.0 size=       1kB time=00:00:02.79 bitrate=   2.1kbits/s speed=0.0751x    frame=  142 fps=3.8 q=56.0 size=       1kB time=00:00:02.87 bitrate=   2.0kbits/s speed=0.076x    frame=  143 fps=3.7 q=56.0 size=       1kB time=00:00:02.91 bitrate=   2.0kbits/s speed=0.0752x    frame=  145 fps=3.7 q=56.0 size=       1kB time=00:00:03.00 bitrate=   2.0kbits/s speed=0.0762x    frame=  148 fps=3.7 q=56.0 size=       1kB time=00:00:03.12 bitrate=   1.9kbits/s speed=0.0781x    frame=  149 fps=3.6 q=56.0 size=       1kB time=00:00:03.16 bitrate=   1.9kbits/s speed=0.0768x    frame=  151 fps=3.6 q=56.0 size=       1kB time=00:00:03.25 bitrate=   1.8kbits/s speed=0.0776x    frame=  153 fps=3.6 q=56.0 size=       1kB time=00:00:03.33 bitrate=   1.8kbits/s speed=0.0784x    frame=  155 fps=3.6 q=56.0 size=       1kB time=00:00:03.41 bitrate=   1.7kbits/s speed=0.0784x    frame=  156 fps=3.5 q=56.0 size=       1kB time=00:00:03.45 bitrate=   1.7kbits/s speed=0.0784x    frame=  157 fps=3.5 q=56.0 size=       1kB time=00:00:03.50 bitrate=   1.7kbits/s speed=0.0783x    frame=  159 fps=3.5 q=56.0 size=       1kB time=00:00:03.58 bitrate=   1.6kbits/s speed=0.0788x    frame=  161 fps=3.5 q=56.0 size=       1kB time=00:00:03.66 bitrate=   1.6kbits/s speed=0.079x    frame=  163 fps=3.5 q=56.0 size=       1kB time=00:00:03.75 bitrate=   1.6kbits/s speed=0.0798x    frame=  165 fps=3.5 q=56.0 size=       1kB time=00:00:03.83 bitrate=   1.5kbits/s speed=0.0802x    frame=  166 fps=3.4 q=56.0 size=       1kB time=00:00:03.87 bitrate=   1.5kbits/s speed=0.0802x    frame=  167 fps=3.4 q=56.0 size=       1kB time=00:00:03.91 bitrate=   1.5kbits/s speed=0.0802x    frame=  170 fps=3.4 q=56.0 size=       1kB time=00:00:04.04 bitrate=   1.5kbits/s speed=0.0816x    frame=  172 fps=3.4 q=56.0 size=       1kB time=00:00:04.12 bitrate=   1.4kbits/s speed=0.0821x    frame=  173 fps=3.4 q=56.0 size=       1kB time=00:00:04.16 bitrate=   1.4kbits/s speed=0.082x    frame=  177 fps=3.4 q=56.0 size=       1kB time=00:00:04.33 bitrate=   1.4kbits/s speed=0.0837x    frame=  180 fps=3.4 q=56.0 size=       1kB time=00:00:04.45 bitrate=   1.3kbits/s speed=0.085x    frame=  182 fps=3.4 q=56.0 size=       1kB time=00:00:04.54 bitrate=   1.3kbits/s speed=0.0858x    frame=  183 fps=3.4 q=56.0 size=       1kB time=00:00:04.58 bitrate=   1.3kbits/s speed=0.0856x    frame=  188 fps=3.5 q=56.0 size=    1340kB time=00:00:04.79 bitrate=2291.0kbits/s speed=0.0887x    frame=  192 fps=3.5 q=56.0 size=    1340kB time=00:00:04.95 bitrate=2214.3kbits/s speed=0.0908x    frame=  195 fps=3.5 q=56.0 size=    1340kB time=00:00:05.08 bitrate=2159.9kbits/s speed=0.092x    frame=  196 fps=3.5 q=56.0 size=    1340kB time=00:00:05.12 bitrate=2142.2kbits/s speed=0.0919x    frame=  197 fps=3.5 q=56.0 size=    1340kB time=00:00:05.16 bitrate=2124.7kbits/s speed=0.0913x    frame=  199 fps=3.5 q=56.0 size=    1340kB time=00:00:05.25 bitrate=2091.2kbits/s speed=0.0916x    frame=  201 fps=3.5 q=56.0 size=    1340kB time=00:00:05.33 bitrate=2058.6kbits/s speed=0.0922x    frame=  203 fps=3.4 q=56.0 size=    1340kB time=00:00:05.41 bitrate=2026.7kbits/s speed=0.0917x    frame=  205 fps=3.4 q=56.0 size=    1340kB time=00:00:05.50 bitrate=1996.1kbits/s speed=0.0919x    frame=  207 fps=3.4 q=56.0 size=    1340kB time=00:00:05.58 bitrate=1966.5kbits/s speed=0.0923x    frame=  210 fps=3.4 q=56.0 size=    1340kB time=00:00:05.70 bitrate=1923.4kbits/s speed=0.0929x    frame=  211 fps=3.4 q=56.0 size=    1340kB time=00:00:05.75 bitrate=1909.4kbits/s speed=0.0928x    frame=  214 fps=3.4 q=56.0 size=    1340kB time=00:00:05.87 bitrate=1868.7kbits/s speed=0.0939x    frame=  216 fps=3.4 q=56.0 size=    1340kB time=00:00:05.95 bitrate=1842.7kbits/s speed=0.0942x    frame=  218 fps=3.4 q=56.0 size=    1340kB time=00:00:06.04 bitrate=1817.1kbits/s speed=0.0944x    frame=  220 fps=3.4 q=56.0 size=    1340kB time=00:00:06.12 bitrate=1792.5kbits/s speed=0.0947x    frame=  223 fps=3.4 q=57.0 size=    1340kB time=00:00:06.25 bitrate=1756.6kbits/s speed=0.0958x    frame=  225 fps=3.4 q=57.0 size=    1340kB time=00:00:06.33 bitrate=1733.6kbits/s speed=0.0961x    frame=  228 fps=3.4 q=56.0 size=    1340kB time=00:00:06.45 bitrate=1700.1kbits/s speed=0.0956x    frame=  231 fps=3.4 q=56.0 size=    1340kB time=00:00:06.58 bitrate=1667.8kbits/s speed=0.0965x    frame=  233 fps=3.4 q=56.0 size=    1340kB time=00:00:06.66 bitrate=1646.8kbits/s speed=0.0967x    frame=  235 fps=3.4 q=56.0 size=    1340kB time=00:00:06.75 bitrate=1626.5kbits/s speed=0.0969x    frame=  236 fps=3.4 q=56.0 size=    1340kB time=00:00:06.79 bitrate=1616.5kbits/s speed=0.0967x    frame=  238 fps=3.3 q=56.0 size=    1340kB time=00:00:06.87 bitrate=1597.0kbits/s speed=0.0964x    frame=  240 fps=3.3 q=56.0 size=    1340kB time=00:00:06.95 bitrate=1577.9kbits/s speed=0.0968x    frame=  242 fps=3.3 q=56.0 size=    1340kB time=00:00:07.04 bitrate=1559.1kbits/s speed=0.0968x    frame=  244 fps=3.3 q=56.0 size=    1340kB time=00:00:07.12 bitrate=1540.9kbits/s speed=0.0969x    frame=  245 fps=3.3 q=56.0 size=    1340kB time=00:00:07.16 bitrate=1531.9kbits/s speed=0.0966x    frame=  247 fps=3.3 q=56.0 size=    1340kB time=00:00:07.25 bitrate=1514.4kbits/s speed=0.0969x    frame=  249 fps=3.3 q=53.0 size=    1340kB time=00:00:07.33 bitrate=1497.2kbits/s speed=0.0971x    frame=  252 fps=3.3 q=57.0 size=    1340kB time=00:00:07.45 bitrate=1472.1kbits/s speed=0.098x    frame=  257 fps=3.4 q=56.0 size=    2068kB time=00:00:07.66 bitrate=2208.8kbits/s speed= 0.1x    frame=  261 fps=3.4 q=56.0 size=    2068kB time=00:00:07.83 bitrate=2162.0kbits/s speed=0.101x    frame=  265 fps=3.4 q=56.0 size=    2068kB time=00:00:08.00 bitrate=2116.9kbits/s speed=0.103x    frame=  266 fps=3.4 q=56.0 size=    2068kB time=00:00:08.04 bitrate=2105.8kbits/s speed=0.102x    frame=  267 fps=3.4 q=56.0 size=    2068kB time=00:00:08.08 bitrate=2095.1kbits/s speed=0.102x    frame=  270 fps=3.4 q=56.0 size=    2068kB time=00:00:08.20 bitrate=2063.2kbits/s speed=0.103x    frame=  271 fps=3.4 q=56.0 size=    2068kB time=00:00:08.25 bitrate=2052.7kbits/s speed=0.102x    frame=  273 fps=3.4 q=56.0 size=    2068kB time=00:00:08.33 bitrate=2032.3kbits/s speed=0.102x    frame=  275 fps=3.4 q=56.0 size=    2068kB time=00:00:08.41 bitrate=2012.0kbits/s speed=0.103x    frame=  278 fps=3.4 q=56.0 size=    2068kB time=00:00:08.54 bitrate=1982.6kbits/s speed=0.103x    frame=  279 fps=3.3 q=56.0 size=    2068kB time=00:00:08.58 bitrate=1973.1kbits/s speed=0.103x    frame=  283 fps=3.4 q=56.0 size=    2068kB time=00:00:08.75 bitrate=1935.5kbits/s speed=0.104x    frame=  284 fps=3.4 q=56.0 size=    2068kB time=00:00:08.79 bitrate=1926.2kbits/s speed=0.104x    frame=  287 fps=3.4 q=56.0 size=    2068kB time=00:00:08.91 bitrate=1899.2kbits/s speed=0.105x    frame=  290 fps=3.4 q=56.0 size=    2068kB time=00:00:09.04 bitrate=1873.0kbits/s speed=0.105x    frame=  293 fps=3.4 q=56.0 size=    2068kB time=00:00:09.16 bitrate=1847.4kbits/s speed=0.106x    frame=  297 fps=3.4 q=56.0 size=    2068kB time=00:00:09.33 bitrate=1814.6kbits/s speed=0.107x    frame=  299 fps=3.4 q=55.0 size=    2068kB time=00:00:09.41 bitrate=1798.4kbits/s speed=0.107x    frame=  301 fps=3.4 q=55.0 size=    2068kB time=00:00:09.50 bitrate=1782.7kbits/s speed=0.108x    frame=  303 fps=3.4 q=55.0 size=    2068kB time=00:00:09.58 bitrate=1767.2kbits/s speed=0.108x    frame=  307 fps=3.4 q=55.0 size=    2068kB time=00:00:09.75 bitrate=1737.0kbits/s speed=0.109x    frame=  310 fps=3.4 q=55.0 size=    2068kB time=00:00:09.87 bitrate=1715.0kbits/s speed=0.11x    frame=  311 fps=3.4 q=55.0 size=    2068kB time=00:00:09.91 bitrate=1707.7kbits/s speed=0.109x    frame=  314 fps=3.4 q=55.0 size=    2068kB time=00:00:10.04 bitrate=1686.5kbits/s speed=0.11x    frame=  317 fps=3.5 q=55.0 size=    2068kB time=00:00:10.16 bitrate=1665.7kbits/s speed=0.111x    frame=  320 fps=3.4 q=55.0 size=    2068kB time=00:00:10.29 bitrate=1645.5kbits/s speed=0.111x    frame=  325 fps=3.5 q=55.0 size=    2068kB time=00:00:10.50 bitrate=1612.9kbits/s speed=0.112x    frame=  327 fps=3.5 q=55.0 size=    2068kB time=00:00:10.58 bitrate=1600.3kbits/s speed=0.112x    frame=  330 fps=3.5 q=55.0 size=    2068kB time=00:00:10.70 bitrate=1581.6kbits/s speed=0.113x    frame=  335 fps=3.5 q=55.0 size=    2068kB time=00:00:10.91 bitrate=1551.3kbits/s speed=0.114x    frame=  343 fps=3.6 q=54.0 size=    2667kB time=00:00:11.25 bitrate=1941.6kbits/s speed=0.117x    frame=  348 fps=3.6 q=54.0 size=    2667kB time=00:00:11.45 bitrate=1906.3kbits/s speed=0.118x    frame=  352 fps=3.6 q=54.0 size=    2667kB time=00:00:11.62 bitrate=1878.9kbits/s speed=0.119x    frame=  356 fps=3.6 q=54.0 size=    2667kB time=00:00:11.79 bitrate=1852.3kbits/s speed=0.12x    frame=  359 fps=3.6 q=54.0 size=    2667kB time=00:00:11.91 bitrate=1832.9kbits/s speed=0.12x    frame=  365 fps=3.7 q=53.0 size=    2667kB time=00:00:12.16 bitrate=1795.2kbits/s speed=0.122x    frame=  368 fps=3.7 q=53.0 size=    2667kB time=00:00:12.29 bitrate=1777.0kbits/s speed=0.123x    frame=  373 fps=3.7 q=53.0 size=    2667kB time=00:00:12.50 bitrate=1747.4kbits/s speed=0.124x    frame=  377 fps=3.7 q=53.0 size=    2667kB time=00:00:12.66 bitrate=1724.4kbits/s speed=0.125x    frame=  383 fps=3.8 q=52.0 size=    2667kB time=00:00:12.91 bitrate=1691.0kbits/s speed=0.127x    frame=  386 fps=3.8 q=52.0 size=    2667kB time=00:00:13.04 bitrate=1674.8kbits/s speed=0.127x    frame=  391 fps=3.8 q=52.0 size=    2667kB time=00:00:13.25 bitrate=1648.5kbits/s speed=0.128x    frame=  395 fps=3.8 q=52.0 size=    2667kB time=00:00:13.41 bitrate=1628.0kbits/s speed=0.129x    frame=  401 fps=3.8 q=51.0 size=    2667kB time=00:00:13.66 bitrate=1598.2kbits/s speed=0.131x    frame=  405 fps=3.9 q=51.0 size=    2667kB time=00:00:13.83 bitrate=1579.0kbits/s speed=0.132x    frame=  409 fps=3.9 q=51.0 size=    2667kB time=00:00:14.00 bitrate=1560.2kbits/s speed=0.133x    frame=  412 fps=3.9 q=51.0 size=    2667kB time=00:00:14.12 bitrate=1546.4kbits/s speed=0.133x    frame=  415 fps=3.9 q=51.0 size=    2667kB time=00:00:14.25 bitrate=1532.8kbits/s speed=0.134x    frame=  420 fps=3.9 q=50.0 size=    2667kB time=00:00:14.45 bitrate=1510.8kbits/s speed=0.135x    frame=  424 fps=3.9 q=50.0 size=    2667kB time=00:00:14.62 bitrate=1493.5kbits/s speed=0.136x    frame=  426 fps=3.9 q=50.0 size=    2667kB time=00:00:14.70 bitrate=1485.1kbits/s speed=0.136x    frame=  432 fps=4.0 q=50.0 size=    2667kB time=00:00:14.95 bitrate=1460.3kbits/s speed=0.137x    frame=  439 fps=4.0 q=49.0 size=    3087kB time=00:00:15.25 bitrate=1658.0kbits/s speed=0.139x    frame=  444 fps=4.0 q=49.0 size=    3087kB time=00:00:15.45 bitrate=1635.7kbits/s speed=0.14x    frame=  447 fps=4.0 q=49.0 size=    3087kB time=00:00:15.58 bitrate=1622.6kbits/s speed=0.14x    frame=  450 fps=4.0 q=49.0 size=    3087kB time=00:00:15.70 bitrate=1609.7kbits/s speed=0.141x    frame=  454 fps=4.0 q=49.0 size=    3087kB time=00:00:15.87 bitrate=1592.7kbits/s speed=0.141x    frame=  458 fps=4.0 q=49.0 size=    3087kB time=00:00:16.04 bitrate=1576.2kbits/s speed=0.142x    frame=  462 fps=4.1 q=49.0 size=    3087kB time=00:00:16.20 bitrate=1560.0kbits/s speed=0.142x    frame=  464 fps=4.1 q=49.0 size=    3087kB time=00:00:16.29 bitrate=1552.0kbits/s speed=0.142x    frame=  466 fps=4.1 q=49.0 size=    3087kB time=00:00:16.37 bitrate=1544.1kbits/s speed=0.142x    frame=  470 fps=4.1 q=49.0 size=    3087kB time=00:00:16.54 bitrate=1528.5kbits/s speed=0.143x    frame=  471 fps=4.0 q=49.0 size=    3087kB time=00:00:16.58 bitrate=1524.8kbits/s speed=0.142x    frame=  477 fps=4.1 q=49.0 size=    3087kB time=00:00:16.83 bitrate=1502.1kbits/s speed=0.143x    frame=  480 fps=4.1 q=49.0 size=    3087kB time=00:00:16.95 bitrate=1491.0kbits/s speed=0.144x    frame=  484 fps=4.1 q=46.0 size=    3087kB time=00:00:17.12 bitrate=1476.5kbits/s speed=0.144x    frame=  489 fps=4.1 q=49.0 size=    3518kB time=00:00:17.33 bitrate=1662.8kbits/s speed=0.145x    frame=  494 fps=4.1 q=49.0 size=    3518kB time=00:00:17.54 bitrate=1643.0kbits/s speed=0.146x    frame=  499 fps=4.1 q=49.0 size=    3518kB time=00:00:17.75 bitrate=1623.7kbits/s speed=0.147x    frame=  500 fps=3.8 q=-1.0 Lsize=    4071kB time=00:00:20.70 bitrate=1610.4kbits/s speed=0.158x    
video:4067kB audio:0kB subtitle:0kB other streams:0kB global headers:0kB muxing overhead: 0.108208%
bench: utime=470.712s
bench: maxrss=2147252kB
[libx264 @ 0x40a71c0] frame I:6     Avg QP:42.46  size: 32339
[libx264 @ 0x40a71c0] frame P:273   Avg QP:48.63  size: 10779
[libx264 @ 0x40a71c0] frame B:221   Avg QP:47.33  size:  4646
[libx264 @ 0x40a71c0] consecutive B-frames: 35.2% 11.6% 18.0% 35.2%
[libx264 @ 0x40a71c0] mb I  I16..4: 19.4% 80.4%  0.3%
[libx264 @ 0x40a71c0] mb P  I16..4:  6.1% 38.3%  0.0%  P16..4:  5.2%  0.1%  0.1%  0.0%  0.0%    skip:50.3%
[libx264 @ 0x40a71c0] mb B  I16..4:  0.5%  0.7%  0.0%  B16..8: 13.2%  0.2%  0.0%  direct: 0.1%  skip:85.2%  L0:43.1% L1:56.6% BI: 0.3%
[libx264 @ 0x40a71c0] final ratefactor: 46.11
[libx264 @ 0x40a71c0] 8x8 transform intra:85.5% inter:95.1%
[libx264 @ 0x40a71c0] direct mvs  spatial:99.1% temporal:0.9%
[libx264 @ 0x40a71c0] coded y,uvDC,uvAC intra: 4.0% 13.0% 0.0% inter: 0.2% 0.6% 0.0%
[libx264 @ 0x40a71c0] i16 v,h,dc,p: 42% 36%  4% 18%
[libx264 @ 0x40a71c0] i8 v,h,dc,ddl,ddr,vr,hd,vl,hu: 17%  5% 76%  0%  0%  0%  0%  0%  0%
[libx264 @ 0x40a71c0] i4 v,h,dc,ddl,ddr,vr,hd,vl,hu: 19% 10% 10% 16% 12%  8% 10%  6%  9%
[libx264 @ 0x40a71c0] i8c dc,h,v,p: 97%  2%  1%  0%
[libx264 @ 0x40a71c0] Weighted P-Frames: Y:1.1% UV:0.7%
[libx264 @ 0x40a71c0] ref P L0: 45.9%  2.1% 22.6%  7.2%  6.2%  5.4%  6.3%  2.9%  1.3%  0.0%
[libx264 @ 0x40a71c0] ref B L0: 78.0%  9.7%  6.3%  2.3%  1.9%  1.4%  0.5%
[libx264 @ 0x40a71c0] ref B L1: 97.0%  3.0%
[libx264 @ 0x40a71c0] kb/s:1598.78
